<?xml version="1.0" encoding="utf-8"?>
<svg width="2in" height="2in" version="1.1" style="shape-rendering:geometricPrecision; text-rendering:geometricPrecision; image-rendering:optimizeQuality; fill-rule:evenodd; clip-rule:evenodd" viewBox="0 0 1014.447 1014.308" xmlns="http://www.w3.org/2000/svg">
  <defs>
    <style type="text/css">
   
    .fil2 {fill:#FEFEFE}
    .fil1 {fill:#E52A3E}
    .fil0 {fill:#2B2449}
   
  </style>
  </defs>
  <g id="__x0023_Layer_x0020_1" style="" transform="matrix(0.889738, 0, 0, 0.889738, -308.883789, -5.758582)">
    <g id="_1187510063680" style="" transform="matrix(1.52916, 0, 0, 1.52916, -181.350113, 75.992004)">
      <path class="fil1" d="M853.68 260.56c10.04,22.23 18.35,43.99 24.83,64.77 8.25,-2.49 16.1,-5.17 23.48,-8.03 41.75,-16.15 67.57,-36.56 67.57,-57.39 0,-20.83 -25.82,-41.25 -67.57,-57.39 -7.22,-2.79 -14.89,-5.42 -22.94,-7.87 -6.61,21.13 -15.09,43.29 -25.37,65.92z"/>
      <path class="fil1" d="M810.43 179.73c4.06,6.52 8.06,13.18 11.99,19.97l0.37 0.64 0 0.07c3.77,6.53 7.39,13.07 10.88,19.59 4.57,-11.57 8.61,-22.91 12.08,-33.93 -11.27,-2.44 -23.06,-4.56 -35.32,-6.33z"/>
      <path class="fil1" d="M742.41 89.28c14.45,15.73 28.85,33.44 42.8,52.8 24.61,2.38 47.96,6.06 69.56,10.82 1.69,-7.51 3.08,-14.81 4.17,-21.86 6.72,-43.76 1.92,-76 -15.99,-86.35l-0.01 -0.04c-17.97,-10.31 -48.35,1.69 -82.95,29.42 -5.8,4.65 -11.67,9.73 -17.58,15.21z"/>
      <path class="fil1" d="M582.82 260.55c-10.26,-22.6 -18.73,-44.72 -25.33,-65.81 -7.94,2.42 -15.5,5.02 -22.63,7.78 -41.75,16.14 -67.57,36.56 -67.57,57.39 0,20.83 25.83,41.24 67.58,57.38 7.29,2.82 15.02,5.47 23.16,7.93 6.48,-20.74 14.78,-42.48 24.8,-64.68z"/>
      <path class="fil1" d="M625.35 339.92c-4,-6.44 -7.95,-13 -11.81,-19.69l0 -0.07 -0.35 -0.6c-3.55,-6.16 -6.97,-12.31 -10.28,-18.46 -4.37,11.13 -8.24,22.06 -11.59,32.69 10.87,2.34 22.24,4.4 34.03,6.13z"/>
      <path class="fil1" d="M694.04 431.17c-14.68,-15.93 -29.3,-33.89 -43.46,-53.55 -24.14,-2.38 -47.06,-6 -68.28,-10.67 -1.7,7.53 -3.09,14.85 -4.18,21.92 -6.71,43.76 -1.91,75.99 15.98,86.33l0.01 0.05c17.98,10.3 48.35,-1.7 82.94,-29.42 5.6,-4.5 11.27,-9.39 16.97,-14.66z"/>
      <path class="fil1" d="M590.77 186.12c3.47,11.01 7.5,22.32 12.05,33.85 3.52,-6.57 7.18,-13.16 10.98,-19.75l0 -0.07 0.29 -0.49c3.91,-6.77 7.9,-13.41 11.95,-19.91 -12.24,1.79 -24.02,3.92 -35.27,6.37z"/>
      <path class="fil1" d="M694.1 89.28c-5.91,-5.49 -11.79,-10.57 -17.59,-15.23 -34.6,-27.74 -64.99,-39.72 -82.97,-29.36l0.02 0.03c-17.88,10.33 -22.68,42.55 -15.97,86.28 1.09,7.09 2.49,14.43 4.19,21.99 21.54,-4.75 44.85,-8.42 69.44,-10.82 13.98,-19.4 28.41,-37.14 42.89,-52.9z"/>
      <path class="fil1" d="M739.98 139.22c-7.2,-9.02 -14.46,-17.54 -21.73,-25.5 -7.29,7.99 -14.58,16.53 -21.81,25.59 7.26,-0.22 14.6,-0.34 22,-0.34l0 -0.07c7.25,0 14.43,0.11 21.54,0.32z"/>
      <path class="fil1" d="M845.21 333.86c-3.36,-10.66 -7.24,-21.61 -11.62,-32.77 -3.32,6.18 -6.77,12.38 -10.34,18.57l-0.28 0.49 0 0.07c-3.88,6.72 -7.84,13.3 -11.86,19.76 11.82,-1.73 23.21,-3.78 34.1,-6.12z"/>
      <path class="fil1" d="M742.44 431.17c5.71,5.28 11.39,10.18 17.01,14.68 34.6,27.74 64.98,39.72 82.92,29.36l0.24 -0.16c17.71,-10.46 22.45,-42.58 15.78,-86.13 -1.08,-7.06 -2.47,-14.37 -4.17,-21.9 -21.25,4.66 -44.18,8.27 -68.34,10.64 -14.15,19.65 -28.77,37.59 -43.43,53.51z"/>
      <path class="fil1" d="M695.85 380.55c7.42,9.3 14.9,18.06 22.39,26.23 7.49,-8.17 14.97,-16.93 22.38,-26.22 -7.32,0.23 -14.72,0.35 -22.18,0.35 -7.6,0 -15.14,-0.12 -22.59,-0.35z"/>
      <path class="fil1" d="M643.26 303.01c8.43,14.58 17.2,28.52 26.19,41.71 15.85,1.15 32.23,1.76 49,1.76 16.62,0 32.86,-0.6 48.57,-1.73 9,-13.2 17.78,-27.14 26.22,-41.74l0.03 0.02 0.25 -0.44c8.13,-14.09 15.57,-28.16 22.31,-42.07 -6.84,-14.2 -14.43,-28.58 -22.73,-42.99l-0.03 0.02 -0.37 -0.64c-8.47,-14.65 -17.29,-28.66 -26.33,-41.9 -15.52,-1.1 -31.54,-1.68 -47.93,-1.68l0 -0.07c-16.52,0 -32.66,0.59 -48.31,1.72 -9.04,13.25 -17.86,27.24 -26.33,41.9l-0.29 0.49 -0.03 -0.02c-8.34,14.46 -15.96,28.9 -22.83,43.16 6.72,13.87 14.14,27.91 22.25,41.97l0.32 0.55 0.03 -0.01z"/>
      <path class="fil1" d="M990.2 298.61c-1.79,12.07 -98.15,174.13 -106.59,180.58 12.08,-23.03 14.8,-56.23 8.8,-95.38 -1.25,-8.18 -2.88,-16.64 -4.88,-25.37 9.44,-2.83 18.4,-5.88 26.84,-9.15 34.59,-13.38 60.93,-30.69 75.84,-50.69zm-437.53 180.15l0 0c-11.89,-23.03 -14.53,-56.07 -8.56,-95 1.26,-8.18 2.89,-16.67 4.9,-25.41 -9.32,-2.8 -18.17,-5.82 -26.52,-9.04 -34.59,-13.38 -60.94,-30.68 -75.85,-50.68 1.46,9.94 96.4,172.58 106.03,180.14zm70.95 32.66l0 0c63.07,2.91 126.4,2.93 189.46,0.06 -23.11,-4.27 -48.84,-17.76 -75.15,-38.86 -6.5,-5.21 -13.08,-10.91 -19.68,-17.06 -6.6,6.13 -13.16,11.82 -19.66,17.03 -26.24,21.04 -51.91,34.52 -74.97,38.83zm260.94 -469.98l0 0c11.76,23.02 14.35,55.96 8.4,94.72 -1.26,8.17 -2.89,16.64 -4.89,25.37 9.24,2.78 18.02,5.78 26.3,8.98 34.57,13.37 60.91,30.68 75.82,50.66 -2.22,-15.63 -92.62,-169.83 -105.63,-179.74zm-273.13 -34.35l0 0c25.9,1.28 55.86,15.56 86.6,40.21 6.68,5.36 13.44,11.23 20.23,17.57 6.79,-6.34 13.54,-12.2 20.22,-17.56 30.86,-24.74 60.92,-39.04 86.88,-40.25 -22.37,-9.48 -191.84,-9.34 -213.93,0.03zm-164.77 214.1l0 0c14.91,-19.99 41.25,-37.3 75.82,-50.66 8.18,-3.17 16.87,-6.13 25.99,-8.89 -2.02,-8.78 -3.66,-17.3 -4.92,-25.51 -5.91,-38.54 -3.37,-71.84 8.22,-94.83 -12.22,9.35 -102.97,164.65 -105.12,179.89z"/>
      <path class="fil1" d="M686.2 262.1c0,-18.67 14.31,-32.98 32.98,-32.98 18.05,0 32.36,14.31 32.36,32.98 0,18.05 -14.31,32.98 -32.36,32.98 -18.66,0 -32.98,-14.93 -32.98,-32.98z"/>
      <path class="fil2" d="M686.2 262.1c0,-18.67 14.31,-32.98 32.98,-32.98 18.05,0 32.36,14.31 32.36,32.98 0,18.05 -14.31,32.98 -32.36,32.98 -18.66,0 -32.98,-14.93 -32.98,-32.98zm-42.94 40.92l0 0c8.43,14.58 17.2,28.52 26.19,41.71 15.85,1.15 32.23,1.76 49,1.76 16.62,0 32.86,-0.6 48.57,-1.73 9,-13.2 17.78,-27.14 26.22,-41.74l0.03 0.02 0.25 -0.44c8.13,-14.09 15.57,-28.16 22.31,-42.07 -6.84,-14.2 -14.43,-28.58 -22.73,-42.99l-0.03 0.02 -0.37 -0.64c-8.47,-14.65 -17.29,-28.66 -26.33,-41.9 -15.52,-1.1 -31.54,-1.68 -47.93,-1.68l0 -0.07c-16.52,0 -32.66,0.59 -48.31,1.72 -9.04,13.25 -17.86,27.24 -26.33,41.9l-0.28 0.49 -0.03 -0.02c-8.34,14.46 -15.96,28.9 -22.83,43.16 6.72,13.87 14.14,27.91 22.25,41.97l0.32 0.55 0.03 -0.01zm52.59 77.54l0 0c7.42,9.3 14.9,18.06 22.39,26.23 7.49,-8.17 14.97,-16.93 22.38,-26.22 -7.32,0.23 -14.72,0.35 -22.18,0.35 -7.6,0 -15.14,-0.12 -22.59,-0.35zm46.59 50.62l0 0c5.71,5.28 11.39,10.18 17.01,14.68 34.6,27.74 64.98,39.72 82.92,29.36l0.24 -0.16c17.71,-10.46 22.45,-42.58 15.78,-86.13 -1.08,-7.06 -2.47,-14.37 -4.17,-21.9 -21.25,4.66 -44.18,8.27 -68.34,10.64 -14.15,19.65 -28.77,37.59 -43.43,53.51zm102.77 -97.31l0 0c-10.89,2.34 -22.29,4.39 -34.1,6.12 4.02,-6.45 7.98,-13.04 11.86,-19.76l0 -0.07 0.28 -0.49c3.57,-6.19 7.02,-12.39 10.34,-18.57 4.38,11.16 8.26,22.11 11.62,32.77zm-105.22 -194.64l0 0c-7.2,-9.02 -14.46,-17.54 -21.73,-25.5 -7.29,7.99 -14.58,16.53 -21.81,25.59 7.26,-0.22 14.6,-0.34 22,-0.34l0 -0.07c7.25,0 14.43,0.11 21.54,0.32zm-45.89 -49.94l0 0c-5.91,-5.49 -11.79,-10.57 -17.59,-15.23 -34.6,-27.74 -64.99,-39.72 -82.97,-29.36l0.02 0.03c-17.88,10.33 -22.68,42.55 -15.97,86.28 1.09,7.09 2.49,14.43 4.19,21.99 21.54,-4.75 44.85,-8.42 69.44,-10.82 13.98,-19.4 28.41,-37.14 42.89,-52.9zm-103.33 96.84l0 0c11.25,-2.45 23.03,-4.58 35.27,-6.37 -4.05,6.51 -8.04,13.14 -11.95,19.91l-0.29 0.49 0 0.07c-3.8,6.59 -7.46,13.18 -10.98,19.75 -4.56,-11.54 -8.58,-22.85 -12.05,-33.85zm147.16 286.5l0 0c45.84,36.75 89.93,50.46 121.45,32.45l0.24 -0.16c31.44,-18.17 41.68,-63.11 32.79,-121.09 -1.25,-8.18 -2.88,-16.64 -4.88,-25.37 9.44,-2.83 18.4,-5.88 26.84,-9.15 55.37,-21.42 89.62,-52.91 89.62,-89.39 0,-36.48 -34.25,-67.97 -89.62,-89.39 -8.28,-3.21 -17.06,-6.2 -26.3,-8.98 2,-8.73 3.64,-17.2 4.89,-25.37 8.91,-58.02 -1.32,-102.99 -32.79,-121.18l-0.1 -0.02c-31.49,-18.17 -75.66,-4.47 -121.59,32.35 -6.68,5.35 -13.43,11.21 -20.22,17.56 -6.79,-6.34 -13.55,-12.21 -20.23,-17.57 -45.69,-36.63 -89.63,-50.35 -121.11,-32.58l-0.58 0.29c-31.44,18.18 -41.67,63.12 -32.78,121.12 1.26,8.21 2.9,16.74 4.92,25.51 -9.13,2.75 -17.81,5.72 -25.99,8.89 -55.37,21.41 -89.62,52.91 -89.62,89.39 0,36.48 34.25,67.97 89.63,89.39 8.34,3.22 17.2,6.24 26.52,9.04 -2,8.74 -3.64,17.23 -4.9,25.41 -8.9,58.02 1.33,102.98 32.79,121.16l0.1 0.02c31.51,18.16 75.67,4.46 121.58,-32.35 6.49,-5.21 13.06,-10.9 19.66,-17.03 6.61,6.15 13.18,11.84 19.68,17.06zm-43.89 -41.44l0 0c-5.7,5.27 -11.37,10.16 -16.97,14.66 -34.59,27.72 -64.96,39.72 -82.94,29.42l-0.01 -0.05c-17.89,-10.34 -22.7,-42.57 -15.98,-86.33 1.08,-7.06 2.48,-14.38 4.18,-21.92 21.22,4.67 44.14,8.29 68.28,10.67 14.16,19.66 28.78,37.63 43.46,53.55zm-68.69 -91.25l0 0c-11.8,-1.73 -23.16,-3.79 -34.03,-6.13 3.35,-10.63 7.22,-21.55 11.59,-32.69 3.3,6.14 6.73,12.3 10.28,18.46l0.35 0.6 0 0.07c3.87,6.69 7.81,13.26 11.81,19.69zm-42.53 -79.37l0 0c-10.02,22.2 -18.31,43.93 -24.8,64.68 -8.13,-2.46 -15.87,-5.12 -23.16,-7.93 -41.75,-16.15 -67.58,-36.55 -67.58,-57.38 0,-20.84 25.82,-41.25 67.57,-57.39 7.14,-2.76 14.69,-5.36 22.63,-7.78 6.6,21.1 15.07,43.22 25.33,65.81zm159.59 -171.27l0 0c5.91,-5.48 11.78,-10.56 17.58,-15.21 34.59,-27.73 64.98,-39.73 82.95,-29.42l0.01 0.04c17.91,10.35 22.71,42.59 15.99,86.35 -1.08,7.05 -2.48,14.34 -4.17,21.86 -21.59,-4.76 -44.95,-8.44 -69.56,-10.82 -13.95,-19.36 -28.35,-37.06 -42.8,-52.8zm68.03 90.45l0 0c12.26,1.78 24.06,3.9 35.32,6.33 -3.48,11.03 -7.51,22.37 -12.08,33.93 -3.49,-6.52 -7.12,-13.06 -10.88,-19.59l0 -0.07 -0.37 -0.64c-3.92,-6.79 -7.92,-13.44 -11.99,-19.97zm43.25 80.83l0 0c10.28,-22.63 18.76,-44.79 25.37,-65.92 8.06,2.45 15.72,5.08 22.94,7.87 41.75,16.15 67.57,36.56 67.57,57.39 0,20.83 -25.82,41.24 -67.57,57.39 -7.38,2.86 -15.23,5.54 -23.48,8.03 -6.49,-20.77 -14.8,-42.53 -24.83,-64.77z"/>
    </g>
  </g>
  <g id="g-1" transform="matrix(0.587663, 0, 0, 0.587663, 85.031685, 452.491699)" style="">
    <g id="g-2">
      <path class="fil0" d="M-0 755.58c0,-43.82 33.75,-78.46 78.16,-78.46 24.57,0 45.3,10.66 57.73,25.46 2.07,2.37 3.55,5.63 3.55,8.29 0,6.51 -5.03,10.95 -11.84,10.95 -4.44,0 -6.81,-2.37 -10.07,-5.03 -9.18,-10.36 -22.5,-17.76 -39.37,-17.76 -30.2,0 -54.18,24.87 -54.18,56.55 0,31.38 23.98,56.55 54.18,56.55 16.58,0 30.2,-7.4 39.37,-17.76 2.96,-2.67 5.63,-5.33 10.07,-5.33 6.81,0 11.84,4.74 11.84,11.25 0,2.37 -1.48,5.63 -3.55,7.99 -12.44,14.8 -32.86,25.76 -57.73,25.76 -44.41,0 -78.16,-34.64 -78.16,-78.46z"/>
      <path class="fil0" d="M-0 755.58c0,-43.82 33.75,-78.46 78.16,-78.46 24.57,0 45.3,10.66 57.73,25.46 2.07,2.37 3.55,5.63 3.55,8.29 0,6.51 -5.03,10.95 -11.84,10.95 -4.44,0 -6.81,-2.37 -10.07,-5.03 -9.18,-10.36 -22.5,-17.76 -39.37,-17.76 -30.2,0 -54.18,24.87 -54.18,56.55 0,31.38 23.98,56.55 54.18,56.55 16.58,0 30.2,-7.4 39.37,-17.76 2.96,-2.67 5.63,-5.33 10.07,-5.33 6.81,0 11.84,4.74 11.84,11.25 0,2.37 -1.48,5.63 -3.55,7.99 -12.44,14.8 -32.86,25.76 -57.73,25.76 -44.41,0 -78.16,-34.64 -78.16,-78.46z"/>
      <path class="fil0" d="M250.93 701.99l-80.53 0c-5.92,0 -10.95,-5.03 -10.95,-10.96 0,-6.21 5.04,-10.95 10.95,-10.95l103.92 0c6.22,0 10.95,4.74 10.95,10.95 0,2.96 -1.18,5.63 -3.55,8.29l-92.37 109.84 84.97 0c6.22,0 10.95,4.74 10.95,10.96 0,5.92 -4.74,10.95 -10.95,10.95l-108.06 0c-6.22,0 -11.25,-5.03 -11.25,-11.25 0,-3.56 1.78,-5.92 3.55,-7.99l92.37 -109.84z"/>
      <path class="fil0" d="M292.93 755.58c0,-43.82 33.75,-78.46 78.16,-78.46 21.61,0 39.67,8.29 51.22,18.95 2.66,2.37 4.44,5.62 4.44,9.17 0,2.97 -0.89,5.63 -3.85,8.88l-52.7 63.07c-2.37,2.66 -5.03,3.85 -8.29,3.85 -6.51,0 -11.25,-4.44 -11.25,-10.66 0,-2.67 0.59,-5.33 2.67,-7.4l46.18 -54.48c-7.69,-6.51 -18.65,-9.48 -28.42,-9.48 -30.2,0 -54.18,24.87 -54.18,56.55 0,31.38 23.69,56.55 54.18,56.55 16.88,0 30.2,-7.4 39.38,-17.76 3.25,-2.96 5.92,-5.33 10.07,-5.33 6.81,0 11.84,4.74 11.84,11.25 0,2.37 -1.48,5.63 -3.55,7.99 -12.44,14.8 -32.86,25.76 -57.73,25.76 -44.11,0 -78.16,-34.64 -78.16,-78.46z"/>
      <path class="fil0" d="M448.47 755.58c0,-43.82 33.75,-78.46 78.16,-78.46 24.57,0 45.29,10.66 57.73,25.46 2.07,2.37 3.55,5.63 3.55,8.29 0,6.51 -5.04,10.95 -11.84,10.95 -4.44,0 -6.81,-2.37 -10.07,-5.03 -9.18,-10.36 -22.5,-17.76 -39.38,-17.76 -30.2,0 -54.18,24.87 -54.18,56.55 0,31.38 23.98,56.55 54.18,56.55 16.58,0 30.2,-7.4 39.38,-17.76 2.96,-2.67 5.62,-5.33 10.07,-5.33 6.81,0 11.84,4.74 11.84,11.25 0,2.37 -1.48,5.63 -3.55,7.99 -12.44,14.8 -32.86,25.76 -57.73,25.76 -44.41,0 -78.16,-34.64 -78.16,-78.46z"/>
      <path class="fil0" d="M616.89 633.31c0,-6.51 5.03,-11.85 11.85,-11.85 6.51,0 11.84,5.33 11.84,11.85l0 62.17c9.48,-10.07 24.57,-18.36 44.12,-18.36 34.64,0 62.17,25.46 62.17,68.39l0 75.79c0,6.81 -5.33,12.14 -11.84,12.14 -6.81,0 -11.84,-5.33 -11.84,-12.14l0 -76.38c0,-30.5 -18.35,-45.89 -41.45,-45.89 -22.5,0 -41.15,15.1 -41.15,45.89l0 76.38c0,6.81 -5.33,12.14 -11.84,12.14 -6.81,0 -11.85,-5.33 -11.85,-12.14l0 -187.99z"/>
      <path class="fil0" d="M906.42 821.3l0 -65.72c0,-31.38 -23.39,-56.55 -53.88,-56.55 -30.49,0 -54.18,25.17 -54.18,56.55 0,31.09 23.69,56.55 54.18,56.55 10.95,0 20.13,-3.26 27.53,-7.7 2.07,-1.18 4.14,-1.78 6.22,-1.78 6.22,0 11.25,5.03 11.25,11.25 0,4.74 -2.67,8.29 -5.92,10.07 -10.07,5.63 -23.39,10.07 -39.08,10.07 -44.41,0 -78.16,-34.64 -78.16,-78.46 0,-43.82 33.75,-78.46 78.16,-78.46 44.41,0 77.56,34.64 77.56,78.46l0 65.72c0,6.81 -5.33,12.14 -11.84,12.14 -6.81,0 -11.84,-5.33 -11.84,-12.14z"/>
      <path class="fil0" d="M983.77 701.99l-34.35 0c-5.92,0 -10.95,-5.03 -10.95,-10.96 0,-6.21 5.04,-10.95 10.95,-10.95l92.08 0c6.22,0 10.95,4.74 10.95,10.95 0,5.92 -4.73,10.96 -10.95,10.96l-34.05 0 0 119.31c0,6.81 -5.33,12.14 -11.84,12.14 -6.81,0 -11.84,-5.33 -11.84,-12.14l0 -119.31z"/>
      <path class="fil0" d="M1189.56 755.58c0,-31.39 -23.39,-56.55 -53.88,-56.55 -30.49,0 -54.18,25.16 -54.18,56.55 0,31.09 23.69,56.55 54.18,56.55 30.49,0 53.88,-25.46 53.88,-56.55zm-132.04 0l0 0c0,-43.82 33.75,-78.46 78.16,-78.46 44.41,0 77.86,34.64 77.86,78.46 0,43.82 -33.45,78.46 -77.86,78.46 -44.41,0 -78.16,-34.64 -78.16,-78.46z"/>
      <path class="fil0" d="M1242.04 734.56c0,-37.01 24.28,-57.43 54.48,-57.43 19.24,0 34.34,7.1 42.93,21.61 8.29,-14.51 24.87,-21.61 42.63,-21.61 30.5,0 54.77,20.42 54.77,57.43l0 86.75c0,6.8 -5.33,12.13 -11.84,12.13 -6.81,0 -11.85,-5.33 -11.85,-12.13l0 -87.04c0,-23.39 -13.62,-35.23 -31.09,-35.23 -17.17,0 -30.79,11.84 -30.79,35.23l0 87.04c0,6.8 -5.33,12.13 -11.84,12.13 -6.81,0 -11.84,-5.33 -11.84,-12.13l0 -87.04c0,-23.39 -13.62,-35.23 -31.09,-35.23 -17.17,0 -30.79,11.84 -30.79,35.23l0 87.04c0,6.8 -5.33,12.13 -11.84,12.13 -6.81,0 -11.85,-5.33 -11.85,-12.13l0 -86.75z"/>
      <path class="fil1" d="M836.74 755.88c0,-8.88 6.81,-15.7 15.69,-15.7 8.59,0 15.4,6.81 15.4,15.7 0,8.59 -6.81,15.69 -15.4,15.69 -8.88,0 -15.69,-7.11 -15.69,-15.69z"/>
      <path class="fil1" d="M63.06 755.88c0,-8.88 6.81,-15.7 15.69,-15.7 8.59,0 15.4,6.81 15.4,15.7 0,8.59 -6.81,15.69 -15.4,15.69 -8.88,0 -15.69,-7.11 -15.69,-15.69z"/>
    </g>
  </g>
</svg>